<svg xmlns="http://www.w3.org/2000/svg" width="73.781" height="21" viewBox="0 0 73.781 21">
  <g id="Group_5" data-name="Group 5" transform="translate(-1637.948 -14)">
    <text id="ios_app" data-name="ios app" transform="translate(1659.729 31)" fill="#000001" font-size="16" font-family="Roboto-Regular, Roboto"><tspan x="0" y="0">ios app</tspan></text>
    <path id="Icon_awesome-app-store-ios" data-name="Icon awesome-app-store-ios" d="M10.519,2.25H1.262A1.263,1.263,0,0,0,0,3.512v9.257a1.263,1.263,0,0,0,1.262,1.262h9.257a1.263,1.263,0,0,0,1.262-1.262V3.512A1.263,1.263,0,0,0,10.519,2.25ZM3.34,11.52a.525.525,0,0,1-.91-.526l.376-.65a.9.9,0,0,1,1.041.3ZM6.992,10.1H2.209a.526.526,0,0,1,0-1.052H3.55L5.27,6.074l-.539-.931a.525.525,0,0,1,.91-.526l.234.4.234-.4a.525.525,0,0,1,.91.526L4.762,9.05H6.4a.721.721,0,0,1,.6,1.052Zm2.58,0H8.81l.515.891a.525.525,0,0,1-.91.526q-1.3-2.244-1.946-3.369a1.455,1.455,0,0,1,.187-1.783q.517.9,1.549,2.682H9.572a.526.526,0,1,1,0,1.052Z" transform="translate(1637.948 17.359)" fill="#f6b400"/>
  </g>
</svg>
