<svg xmlns="http://www.w3.org/2000/svg" width="19.977" height="19.977" viewBox="0 0 19.977 19.977">
  <g id="Icon_ionic-ios-chatbubbles" data-name="Icon ionic-ios-chatbubbles" transform="translate(-3.375 -3.375)">
    <path id="Path_14" data-name="Path 14" d="M23.29,16.466a1.163,1.163,0,0,1,.158-.586,1.617,1.617,0,0,1,.1-.149,7.781,7.781,0,0,0,1.325-4.336,8.169,8.169,0,0,0-8.341-8.02A8.284,8.284,0,0,0,8.355,9.757,7.717,7.717,0,0,0,8.177,11.4a8.146,8.146,0,0,0,8.212,8.121,9.89,9.89,0,0,0,2.267-.37c.543-.149,1.08-.346,1.22-.4a1.27,1.27,0,0,1,.447-.082,1.249,1.249,0,0,1,.485.1l2.723.965a.649.649,0,0,0,.187.048A.382.382,0,0,0,24.1,19.4a.617.617,0,0,0-.024-.13Z" transform="translate(-1.522)" fill="#00cb84"/>
    <path id="Path_15" data-name="Path 15" d="M16.365,22.939c-.173.048-.394.1-.634.154a8.863,8.863,0,0,1-1.633.216,8.146,8.146,0,0,1-8.212-8.121,9.079,9.079,0,0,1,.072-1.028c.029-.206.062-.413.11-.615s.106-.432.168-.643l-.384.341a7.147,7.147,0,0,0-2.478,5.374,7.067,7.067,0,0,0,1.191,3.938c.11.168.173.3.154.384s-.571,2.977-.571,2.977a.385.385,0,0,0,.13.37.391.391,0,0,0,.245.086.344.344,0,0,0,.139-.029l2.694-1.061a.75.75,0,0,1,.576.01,8.082,8.082,0,0,0,2.915.576,7.542,7.542,0,0,0,5.767-2.646s.154-.211.331-.461C16.768,22.824,16.567,22.886,16.365,22.939Z" transform="translate(0 -3.02)" fill="#00cb84"/>
  </g>
</svg>
