<svg xmlns="http://www.w3.org/2000/svg" width="126.503" height="122.108" viewBox="0 0 126.503 122.108">
  <g id="Polygon_2" data-name="Polygon 2" transform="matrix(0.848, -0.53, 0.53, 0.848, 0, 51.464)" fill="none" opacity="0.42">
    <path d="M39.055,16.3a11,11,0,0,1,19.007,0l29.414,50.46a11,11,0,0,1-9.5,16.54H19.145a11,11,0,0,1-9.5-16.54Z" stroke="none"/>
    <path d="M 48.55855178833008 15.84250640869141 C 47.52199935913086 15.84250640869141 44.94192123413086 16.13272094726562 43.37495040893555 18.82089233398438 L 13.96098327636719 69.28054046630859 C 13.39311981201172 70.25470733642578 13.11307525634766 71.29355621337891 13.12863159179688 72.36820220947266 C 13.14327239990234 73.37970733642578 13.42459869384766 74.39052581787109 13.94218444824219 75.29135131835938 C 14.45978546142578 76.19218444824219 15.19138336181641 76.94427490234375 16.05787658691406 77.46632385253906 C 16.97847747802734 78.02095031738281 18.01699829101562 78.30218505859375 19.14458465576172 78.30218505859375 L 77.9725341796875 78.30218505859375 C 79.10012054443359 78.30218505859375 80.13862609863281 78.02095031738281 81.05922698974609 77.46632385253906 C 81.92572021484375 76.94427490234375 82.65731811523438 76.19218444824219 83.17491912841797 75.29135131835938 C 83.6925048828125 74.39052581787109 83.97383117675781 73.37972259521484 83.98847198486328 72.36821746826172 C 84.0040283203125 71.29355621337891 83.72398376464844 70.25470733642578 83.15612030029297 69.28055572509766 L 53.74216842651367 18.82089233398438 C 52.17516708374023 16.13272094726562 49.59508895874023 15.84250640869141 48.55855178833008 15.84250640869141 M 48.55854415893555 10.84251403808594 C 52.24920272827148 10.84251403808594 55.93986129760742 12.66262817382812 58.06182861328125 16.30286407470703 L 87.47579956054688 66.76252746582031 C 91.75048828125 74.09577178955078 86.46072387695312 83.30218505859375 77.9725341796875 83.30218505859375 L 19.14458465576172 83.30218505859375 C 10.65637969970703 83.30218505859375 5.366615295410156 74.09577178955078 9.641304016113281 66.76252746582031 L 39.05527496337891 16.30286407470703 C 41.1772346496582 12.66262817382812 44.86788940429688 10.84251403808594 48.55854415893555 10.84251403808594 Z" stroke="none" fill="#c8f0e2"/>
  </g>
</svg>
